# xmcd
#
# Track frame offsets: 
#        150
#        25704
#        43676
#        61123
#        73985
#        90325
#        111572
#        125270
#        139245
#
# Disc length: 2075 seconds
#
# Revision: 0
# Processed by: cddbd v1.5.2PL0 Copyright (c) Steve Scherf et al.
# Submitted via: ExactAudioCopy v0.99pb5
#
DISCID=7b081909
DTITLE=Strayhound - Alicanto
DYEAR=2009
DGENRE=Country
TTITLE0=Alicanto
TTITLE1=Blackbirds and Roses
TTITLE2=The Price of Being Free
TTITLE3=Stranger Friends
TTITLE4=Wishful Drinking
TTITLE5=Sonora Remains
TTITLE6=One By One
TTITLE7=These Wings Don't Need to Fly
TTITLE8=Tomorrow Never Knows
EXTD=
EXTT0=
EXTT1=
EXTT2=
EXTT3=
EXTT4=
EXTT5=
EXTT6=
EXTT7=
EXTT8=
PLAYORDER=
